<mxfile host="app.diagrams.net" modified="2022-10-20T22:45:43.368Z" agent="5.0 (Windows NT 10.0; Win64; x64) AppleWebKit/537.36 (KHTML, like Gecko) Chrome/106.0.0.0 Safari/537.36" etag="rwaWOLeyly81zrBjWlp1" version="20.4.2" type="github">
  <diagram id="nGY78GgrmlLPz7ZSxJ6B" name="Page-1">
    <mxGraphModel dx="1182" dy="1393" grid="1" gridSize="10" guides="1" tooltips="1" connect="1" arrows="1" fold="1" page="1" pageScale="1" pageWidth="850" pageHeight="1100" math="0" shadow="0">
      <root>
        <mxCell id="0" />
        <mxCell id="1" parent="0" />
        <mxCell id="ga5Y2FUn5J8a-sesneGH-1" value="&lt;b&gt;&lt;font style=&quot;font-size: 18px;&quot;&gt;Person&lt;/font&gt;&lt;/b&gt;" style="text;html=1;align=center;verticalAlign=middle;resizable=0;points=[];autosize=1;strokeColor=none;fillColor=none;" vertex="1" parent="1">
          <mxGeometry x="190" y="110" width="80" height="40" as="geometry" />
        </mxCell>
        <mxCell id="ga5Y2FUn5J8a-sesneGH-2" value="&lt;b&gt;&lt;font style=&quot;font-size: 18px;&quot;&gt;Employee&lt;/font&gt;&lt;/b&gt;" style="text;html=1;align=center;verticalAlign=middle;resizable=0;points=[];autosize=1;strokeColor=none;fillColor=none;" vertex="1" parent="1">
          <mxGeometry x="190" y="230" width="110" height="40" as="geometry" />
        </mxCell>
        <mxCell id="ga5Y2FUn5J8a-sesneGH-3" value="&lt;b&gt;&lt;font style=&quot;font-size: 18px;&quot;&gt;Alumnius&lt;/font&gt;&lt;/b&gt;" style="text;html=1;align=center;verticalAlign=middle;resizable=0;points=[];autosize=1;strokeColor=none;fillColor=none;" vertex="1" parent="1">
          <mxGeometry x="190" y="350" width="110" height="40" as="geometry" />
        </mxCell>
        <mxCell id="ga5Y2FUn5J8a-sesneGH-4" value="&lt;b&gt;&lt;font style=&quot;font-size: 18px;&quot;&gt;Studnet&lt;/font&gt;&lt;/b&gt;" style="text;html=1;align=center;verticalAlign=middle;resizable=0;points=[];autosize=1;strokeColor=none;fillColor=none;" vertex="1" parent="1">
          <mxGeometry x="190" y="470" width="90" height="40" as="geometry" />
        </mxCell>
        <mxCell id="ga5Y2FUn5J8a-sesneGH-5" value="&lt;b&gt;&lt;font style=&quot;font-size: 18px;&quot;&gt;Staff&lt;/font&gt;&lt;/b&gt;" style="text;html=1;align=center;verticalAlign=middle;resizable=0;points=[];autosize=1;strokeColor=none;fillColor=none;" vertex="1" parent="1">
          <mxGeometry x="200" y="590" width="60" height="40" as="geometry" />
        </mxCell>
        <mxCell id="ga5Y2FUn5J8a-sesneGH-6" value="&lt;b&gt;&lt;font style=&quot;font-size: 18px;&quot;&gt;Faculty&lt;/font&gt;&lt;/b&gt;" style="text;html=1;align=center;verticalAlign=middle;resizable=0;points=[];autosize=1;strokeColor=none;fillColor=none;" vertex="1" parent="1">
          <mxGeometry x="195" y="710" width="90" height="40" as="geometry" />
        </mxCell>
        <mxCell id="ga5Y2FUn5J8a-sesneGH-7" value="&lt;font style=&quot;&quot;&gt;&lt;span style=&quot;font-size: 18px;&quot;&gt;&lt;b&gt;Student&amp;nbsp;&lt;/b&gt;&lt;/span&gt;&lt;/font&gt;&lt;span style=&quot;font-size: 18px;&quot;&gt;&lt;b&gt;Assistant&lt;/b&gt;&lt;/span&gt;" style="text;html=1;align=center;verticalAlign=middle;resizable=0;points=[];autosize=1;strokeColor=none;fillColor=none;" vertex="1" parent="1">
          <mxGeometry x="190" y="830" width="180" height="40" as="geometry" />
        </mxCell>
        <mxCell id="ga5Y2FUn5J8a-sesneGH-8" value="&lt;b&gt;&lt;font style=&quot;font-size: 18px;&quot;&gt;Person&lt;/font&gt;&lt;/b&gt;" style="text;html=1;align=center;verticalAlign=middle;resizable=0;points=[];autosize=1;strokeColor=none;fillColor=none;" vertex="1" parent="1">
          <mxGeometry x="190" y="1080" width="80" height="40" as="geometry" />
        </mxCell>
        <mxCell id="ga5Y2FUn5J8a-sesneGH-9" value="&lt;b&gt;&lt;font style=&quot;font-size: 18px;&quot;&gt;Research Assistant&lt;/font&gt;&lt;/b&gt;" style="text;html=1;align=center;verticalAlign=middle;resizable=0;points=[];autosize=1;strokeColor=none;fillColor=none;" vertex="1" parent="1">
          <mxGeometry x="185" y="1190" width="190" height="40" as="geometry" />
        </mxCell>
        <mxCell id="ga5Y2FUn5J8a-sesneGH-10" value="&lt;b&gt;&lt;font style=&quot;font-size: 18px;&quot;&gt;Graduate Student&lt;/font&gt;&lt;/b&gt;" style="text;html=1;align=center;verticalAlign=middle;resizable=0;points=[];autosize=1;strokeColor=none;fillColor=none;" vertex="1" parent="1">
          <mxGeometry x="195" y="950" width="170" height="40" as="geometry" />
        </mxCell>
        <mxCell id="ga5Y2FUn5J8a-sesneGH-61" style="edgeStyle=orthogonalEdgeStyle;rounded=0;orthogonalLoop=1;jettySize=auto;html=1;entryX=0.37;entryY=1;entryDx=0;entryDy=0;entryPerimeter=0;fontSize=18;" edge="1" parent="1" source="ga5Y2FUn5J8a-sesneGH-11" target="ga5Y2FUn5J8a-sesneGH-16">
          <mxGeometry relative="1" as="geometry">
            <Array as="points">
              <mxPoint x="240" y="330" />
              <mxPoint x="180" y="330" />
              <mxPoint x="180" y="240" />
              <mxPoint x="227" y="240" />
            </Array>
          </mxGeometry>
        </mxCell>
        <mxCell id="ga5Y2FUn5J8a-sesneGH-11" value="&lt;b&gt;&lt;u&gt;SSN&lt;/u&gt;&lt;/b&gt;" style="whiteSpace=wrap;html=1;align=center;fontSize=18;" vertex="1" parent="1">
          <mxGeometry x="190" y="270" width="100" height="40" as="geometry" />
        </mxCell>
        <mxCell id="ga5Y2FUn5J8a-sesneGH-12" value="BirthDate" style="whiteSpace=wrap;html=1;align=center;fontSize=18;" vertex="1" parent="1">
          <mxGeometry x="585" y="150" width="100" height="40" as="geometry" />
        </mxCell>
        <mxCell id="ga5Y2FUn5J8a-sesneGH-13" value="Address" style="whiteSpace=wrap;html=1;align=center;fontSize=18;" vertex="1" parent="1">
          <mxGeometry x="485" y="150" width="100" height="40" as="geometry" />
        </mxCell>
        <mxCell id="ga5Y2FUn5J8a-sesneGH-14" value="Sex" style="whiteSpace=wrap;html=1;align=center;fontSize=18;" vertex="1" parent="1">
          <mxGeometry x="385" y="150" width="100" height="40" as="geometry" />
        </mxCell>
        <mxCell id="ga5Y2FUn5J8a-sesneGH-15" value="Name" style="whiteSpace=wrap;html=1;align=center;fontSize=18;" vertex="1" parent="1">
          <mxGeometry x="285" y="150" width="100" height="40" as="geometry" />
        </mxCell>
        <mxCell id="ga5Y2FUn5J8a-sesneGH-16" value="&lt;b&gt;&lt;u&gt;SSN&lt;/u&gt;&lt;/b&gt;" style="whiteSpace=wrap;html=1;align=center;fontSize=18;" vertex="1" parent="1">
          <mxGeometry x="190" y="150" width="100" height="40" as="geometry" />
        </mxCell>
        <mxCell id="ga5Y2FUn5J8a-sesneGH-17" value="MajorDept" style="whiteSpace=wrap;html=1;align=center;fontSize=18;" vertex="1" parent="1">
          <mxGeometry x="390" y="510" width="100" height="40" as="geometry" />
        </mxCell>
        <mxCell id="ga5Y2FUn5J8a-sesneGH-18" value="&lt;b&gt;&lt;u&gt;StudentID&lt;/u&gt;&lt;/b&gt;" style="whiteSpace=wrap;html=1;align=center;fontSize=18;" vertex="1" parent="1">
          <mxGeometry x="290" y="510" width="100" height="40" as="geometry" />
        </mxCell>
        <mxCell id="ga5Y2FUn5J8a-sesneGH-63" style="edgeStyle=orthogonalEdgeStyle;rounded=0;orthogonalLoop=1;jettySize=auto;html=1;fontSize=18;entryX=0.17;entryY=1.025;entryDx=0;entryDy=0;entryPerimeter=0;" edge="1" parent="1" source="ga5Y2FUn5J8a-sesneGH-19" target="ga5Y2FUn5J8a-sesneGH-16">
          <mxGeometry relative="1" as="geometry">
            <mxPoint x="210" y="220" as="targetPoint" />
            <Array as="points">
              <mxPoint x="240" y="575" />
              <mxPoint x="160" y="575" />
              <mxPoint x="160" y="220" />
              <mxPoint x="207" y="220" />
            </Array>
          </mxGeometry>
        </mxCell>
        <mxCell id="ga5Y2FUn5J8a-sesneGH-19" value="&lt;b&gt;&lt;u&gt;SSN&lt;/u&gt;&lt;/b&gt;" style="whiteSpace=wrap;html=1;align=center;fontSize=18;" vertex="1" parent="1">
          <mxGeometry x="190" y="510" width="100" height="40" as="geometry" />
        </mxCell>
        <mxCell id="ga5Y2FUn5J8a-sesneGH-20" value="Major" style="whiteSpace=wrap;html=1;align=center;fontSize=18;" vertex="1" parent="1">
          <mxGeometry x="490" y="390" width="100" height="40" as="geometry" />
        </mxCell>
        <mxCell id="ga5Y2FUn5J8a-sesneGH-21" value="Degree" style="whiteSpace=wrap;html=1;align=center;fontSize=18;" vertex="1" parent="1">
          <mxGeometry x="390" y="390" width="100" height="40" as="geometry" />
        </mxCell>
        <mxCell id="ga5Y2FUn5J8a-sesneGH-22" value="Year" style="whiteSpace=wrap;html=1;align=center;fontSize=18;" vertex="1" parent="1">
          <mxGeometry x="290" y="390" width="100" height="40" as="geometry" />
        </mxCell>
        <mxCell id="ga5Y2FUn5J8a-sesneGH-62" style="edgeStyle=orthogonalEdgeStyle;rounded=0;orthogonalLoop=1;jettySize=auto;html=1;fontSize=18;entryX=0.25;entryY=1;entryDx=0;entryDy=0;" edge="1" parent="1" source="ga5Y2FUn5J8a-sesneGH-23" target="ga5Y2FUn5J8a-sesneGH-16">
          <mxGeometry relative="1" as="geometry">
            <mxPoint x="220" y="200" as="targetPoint" />
            <Array as="points">
              <mxPoint x="240" y="450" />
              <mxPoint x="170" y="450" />
              <mxPoint x="170" y="230" />
              <mxPoint x="215" y="230" />
            </Array>
          </mxGeometry>
        </mxCell>
        <mxCell id="ga5Y2FUn5J8a-sesneGH-23" value="&lt;b&gt;&lt;u&gt;SSN&lt;/u&gt;&lt;/b&gt;" style="whiteSpace=wrap;html=1;align=center;fontSize=18;" vertex="1" parent="1">
          <mxGeometry x="190" y="390" width="100" height="40" as="geometry" />
        </mxCell>
        <mxCell id="ga5Y2FUn5J8a-sesneGH-24" value="&lt;b&gt;&lt;u&gt;EmployeeID&lt;/u&gt;&lt;/b&gt;" style="whiteSpace=wrap;html=1;align=center;fontSize=18;" vertex="1" parent="1">
          <mxGeometry x="390" y="270" width="110" height="40" as="geometry" />
        </mxCell>
        <mxCell id="ga5Y2FUn5J8a-sesneGH-25" value="Salary" style="whiteSpace=wrap;html=1;align=center;fontSize=18;" vertex="1" parent="1">
          <mxGeometry x="290" y="270" width="100" height="40" as="geometry" />
        </mxCell>
        <mxCell id="ga5Y2FUn5J8a-sesneGH-32" value="PercentTime" style="whiteSpace=wrap;html=1;align=center;fontSize=18;" vertex="1" parent="1">
          <mxGeometry x="550" y="870" width="110" height="40" as="geometry" />
        </mxCell>
        <mxCell id="ga5Y2FUn5J8a-sesneGH-34" value="StudentId" style="whiteSpace=wrap;html=1;align=center;fontSize=18;" vertex="1" parent="1">
          <mxGeometry x="450" y="870" width="100" height="40" as="geometry" />
        </mxCell>
        <mxCell id="ga5Y2FUn5J8a-sesneGH-35" value="&lt;b&gt;&lt;u&gt;StudentAssistantId&lt;/u&gt;&lt;/b&gt;" style="whiteSpace=wrap;html=1;align=center;fontSize=18;" vertex="1" parent="1">
          <mxGeometry x="290" y="870" width="160" height="40" as="geometry" />
        </mxCell>
        <mxCell id="ga5Y2FUn5J8a-sesneGH-66" style="edgeStyle=orthogonalEdgeStyle;rounded=0;orthogonalLoop=1;jettySize=auto;html=1;fontSize=18;entryX=0;entryY=1;entryDx=0;entryDy=0;" edge="1" parent="1" source="ga5Y2FUn5J8a-sesneGH-36" target="ga5Y2FUn5J8a-sesneGH-16">
          <mxGeometry relative="1" as="geometry">
            <mxPoint x="140" y="189" as="targetPoint" />
            <Array as="points">
              <mxPoint x="240" y="920" />
              <mxPoint x="130" y="920" />
              <mxPoint x="130" y="190" />
            </Array>
          </mxGeometry>
        </mxCell>
        <mxCell id="ga5Y2FUn5J8a-sesneGH-36" value="&lt;b&gt;&lt;u&gt;SSN&lt;/u&gt;&lt;/b&gt;" style="whiteSpace=wrap;html=1;align=center;fontSize=18;" vertex="1" parent="1">
          <mxGeometry x="190" y="870" width="100" height="40" as="geometry" />
        </mxCell>
        <mxCell id="ga5Y2FUn5J8a-sesneGH-38" value="Position" style="whiteSpace=wrap;html=1;align=center;fontSize=18;" vertex="1" parent="1">
          <mxGeometry x="390" y="630" width="100" height="40" as="geometry" />
        </mxCell>
        <mxCell id="ga5Y2FUn5J8a-sesneGH-74" style="edgeStyle=orthogonalEdgeStyle;rounded=0;orthogonalLoop=1;jettySize=auto;html=1;fontSize=18;" edge="1" parent="1" source="ga5Y2FUn5J8a-sesneGH-39">
          <mxGeometry relative="1" as="geometry">
            <mxPoint x="420" y="310" as="targetPoint" />
            <Array as="points">
              <mxPoint x="340" y="680" />
              <mxPoint x="610" y="680" />
              <mxPoint x="610" y="380" />
              <mxPoint x="420" y="380" />
              <mxPoint x="420" y="310" />
            </Array>
          </mxGeometry>
        </mxCell>
        <mxCell id="ga5Y2FUn5J8a-sesneGH-39" value="&lt;b&gt;&lt;u&gt;EmployeeId&lt;/u&gt;&lt;/b&gt;" style="whiteSpace=wrap;html=1;align=center;fontSize=18;" vertex="1" parent="1">
          <mxGeometry x="290" y="630" width="100" height="40" as="geometry" />
        </mxCell>
        <mxCell id="ga5Y2FUn5J8a-sesneGH-64" style="edgeStyle=orthogonalEdgeStyle;rounded=0;orthogonalLoop=1;jettySize=auto;html=1;fontSize=18;entryX=0.09;entryY=1.05;entryDx=0;entryDy=0;entryPerimeter=0;" edge="1" parent="1" source="ga5Y2FUn5J8a-sesneGH-40" target="ga5Y2FUn5J8a-sesneGH-16">
          <mxGeometry relative="1" as="geometry">
            <mxPoint x="200" y="200" as="targetPoint" />
            <Array as="points">
              <mxPoint x="240" y="720" />
              <mxPoint x="150" y="720" />
              <mxPoint x="150" y="210" />
              <mxPoint x="200" y="210" />
            </Array>
          </mxGeometry>
        </mxCell>
        <mxCell id="ga5Y2FUn5J8a-sesneGH-40" value="&lt;b&gt;&lt;u&gt;SSN&lt;/u&gt;&lt;/b&gt;" style="whiteSpace=wrap;html=1;align=center;fontSize=18;" vertex="1" parent="1">
          <mxGeometry x="190" y="630" width="100" height="40" as="geometry" />
        </mxCell>
        <mxCell id="ga5Y2FUn5J8a-sesneGH-41" value="Rank" style="whiteSpace=wrap;html=1;align=center;fontSize=18;" vertex="1" parent="1">
          <mxGeometry x="390" y="750" width="100" height="40" as="geometry" />
        </mxCell>
        <mxCell id="ga5Y2FUn5J8a-sesneGH-75" style="edgeStyle=orthogonalEdgeStyle;rounded=0;orthogonalLoop=1;jettySize=auto;html=1;fontSize=18;entryX=0.5;entryY=1;entryDx=0;entryDy=0;" edge="1" parent="1" source="ga5Y2FUn5J8a-sesneGH-42" target="ga5Y2FUn5J8a-sesneGH-24">
          <mxGeometry relative="1" as="geometry">
            <mxPoint x="440" y="360" as="targetPoint" />
            <Array as="points">
              <mxPoint x="340" y="800" />
              <mxPoint x="630" y="800" />
              <mxPoint x="630" y="370" />
              <mxPoint x="445" y="370" />
            </Array>
          </mxGeometry>
        </mxCell>
        <mxCell id="ga5Y2FUn5J8a-sesneGH-42" value="&lt;b&gt;EmployeeId&lt;/b&gt;" style="whiteSpace=wrap;html=1;align=center;fontSize=18;" vertex="1" parent="1">
          <mxGeometry x="290" y="750" width="100" height="40" as="geometry" />
        </mxCell>
        <mxCell id="ga5Y2FUn5J8a-sesneGH-65" style="edgeStyle=orthogonalEdgeStyle;rounded=0;orthogonalLoop=1;jettySize=auto;html=1;fontSize=18;entryX=0;entryY=1;entryDx=0;entryDy=0;" edge="1" parent="1" source="ga5Y2FUn5J8a-sesneGH-43" target="ga5Y2FUn5J8a-sesneGH-16">
          <mxGeometry relative="1" as="geometry">
            <mxPoint x="180" y="130" as="targetPoint" />
            <Array as="points">
              <mxPoint x="240" y="810" />
              <mxPoint x="140" y="810" />
              <mxPoint x="140" y="210" />
              <mxPoint x="190" y="210" />
            </Array>
          </mxGeometry>
        </mxCell>
        <mxCell id="ga5Y2FUn5J8a-sesneGH-43" value="&lt;b&gt;&lt;u&gt;SSN&lt;/u&gt;&lt;/b&gt;" style="whiteSpace=wrap;html=1;align=center;fontSize=18;" vertex="1" parent="1">
          <mxGeometry x="190" y="750" width="100" height="40" as="geometry" />
        </mxCell>
        <mxCell id="ga5Y2FUn5J8a-sesneGH-47" value="DegreeProgram" style="whiteSpace=wrap;html=1;align=center;fontSize=18;" vertex="1" parent="1">
          <mxGeometry x="390" y="990" width="140" height="40" as="geometry" />
        </mxCell>
        <mxCell id="ga5Y2FUn5J8a-sesneGH-78" style="edgeStyle=orthogonalEdgeStyle;rounded=0;orthogonalLoop=1;jettySize=auto;html=1;fontSize=18;entryX=0.1;entryY=1;entryDx=0;entryDy=0;entryPerimeter=0;" edge="1" parent="1" source="ga5Y2FUn5J8a-sesneGH-48" target="ga5Y2FUn5J8a-sesneGH-18">
          <mxGeometry relative="1" as="geometry">
            <mxPoint x="300" y="620" as="targetPoint" />
            <Array as="points">
              <mxPoint x="340" y="1040" />
              <mxPoint x="690" y="1040" />
              <mxPoint x="690" y="620" />
              <mxPoint x="300" y="620" />
            </Array>
          </mxGeometry>
        </mxCell>
        <mxCell id="ga5Y2FUn5J8a-sesneGH-48" value="StudentId" style="whiteSpace=wrap;html=1;align=center;fontSize=18;" vertex="1" parent="1">
          <mxGeometry x="290" y="990" width="100" height="40" as="geometry" />
        </mxCell>
        <mxCell id="ga5Y2FUn5J8a-sesneGH-67" style="edgeStyle=orthogonalEdgeStyle;rounded=0;orthogonalLoop=1;jettySize=auto;html=1;fontSize=18;entryX=0;entryY=0.75;entryDx=0;entryDy=0;" edge="1" parent="1" source="ga5Y2FUn5J8a-sesneGH-49" target="ga5Y2FUn5J8a-sesneGH-16">
          <mxGeometry relative="1" as="geometry">
            <mxPoint x="120" y="180" as="targetPoint" />
            <Array as="points">
              <mxPoint x="240" y="1050" />
              <mxPoint x="120" y="1050" />
              <mxPoint x="120" y="180" />
            </Array>
          </mxGeometry>
        </mxCell>
        <mxCell id="ga5Y2FUn5J8a-sesneGH-49" value="&lt;b&gt;&lt;u&gt;SSN&lt;/u&gt;&lt;/b&gt;" style="whiteSpace=wrap;html=1;align=center;fontSize=18;" vertex="1" parent="1">
          <mxGeometry x="190" y="990" width="100" height="40" as="geometry" />
        </mxCell>
        <mxCell id="ga5Y2FUn5J8a-sesneGH-50" value="Class" style="whiteSpace=wrap;html=1;align=center;fontSize=18;" vertex="1" parent="1">
          <mxGeometry x="390" y="1110" width="100" height="40" as="geometry" />
        </mxCell>
        <mxCell id="ga5Y2FUn5J8a-sesneGH-79" style="edgeStyle=orthogonalEdgeStyle;rounded=0;orthogonalLoop=1;jettySize=auto;html=1;fontSize=18;entryX=0.33;entryY=1;entryDx=0;entryDy=0;entryPerimeter=0;" edge="1" parent="1" source="ga5Y2FUn5J8a-sesneGH-51" target="ga5Y2FUn5J8a-sesneGH-18">
          <mxGeometry relative="1" as="geometry">
            <mxPoint x="320" y="600" as="targetPoint" />
            <Array as="points">
              <mxPoint x="340" y="1160" />
              <mxPoint x="710" y="1160" />
              <mxPoint x="710" y="588" />
              <mxPoint x="323" y="588" />
            </Array>
          </mxGeometry>
        </mxCell>
        <mxCell id="ga5Y2FUn5J8a-sesneGH-51" value="StudentId" style="whiteSpace=wrap;html=1;align=center;fontSize=18;" vertex="1" parent="1">
          <mxGeometry x="290" y="1110" width="100" height="40" as="geometry" />
        </mxCell>
        <mxCell id="ga5Y2FUn5J8a-sesneGH-71" style="edgeStyle=orthogonalEdgeStyle;rounded=0;orthogonalLoop=1;jettySize=auto;html=1;fontSize=18;entryX=0;entryY=0.25;entryDx=0;entryDy=0;" edge="1" parent="1" source="ga5Y2FUn5J8a-sesneGH-52" target="ga5Y2FUn5J8a-sesneGH-16">
          <mxGeometry relative="1" as="geometry">
            <mxPoint x="110" y="160" as="targetPoint" />
            <Array as="points">
              <mxPoint x="240" y="1160" />
              <mxPoint x="110" y="1160" />
              <mxPoint x="110" y="160" />
            </Array>
          </mxGeometry>
        </mxCell>
        <mxCell id="ga5Y2FUn5J8a-sesneGH-52" value="&lt;b&gt;&lt;u&gt;SSN&lt;/u&gt;&lt;/b&gt;" style="whiteSpace=wrap;html=1;align=center;fontSize=18;" vertex="1" parent="1">
          <mxGeometry x="190" y="1110" width="100" height="40" as="geometry" />
        </mxCell>
        <mxCell id="ga5Y2FUn5J8a-sesneGH-53" value="Project" style="whiteSpace=wrap;html=1;align=center;fontSize=18;" vertex="1" parent="1">
          <mxGeometry x="460" y="1230" width="100" height="40" as="geometry" />
        </mxCell>
        <mxCell id="ga5Y2FUn5J8a-sesneGH-76" style="edgeStyle=orthogonalEdgeStyle;rounded=0;orthogonalLoop=1;jettySize=auto;html=1;fontSize=18;entryX=0.188;entryY=1.075;entryDx=0;entryDy=0;entryPerimeter=0;" edge="1" parent="1" source="ga5Y2FUn5J8a-sesneGH-54" target="ga5Y2FUn5J8a-sesneGH-35">
          <mxGeometry relative="1" as="geometry">
            <mxPoint x="320" y="940" as="targetPoint" />
            <Array as="points">
              <mxPoint x="375" y="1280" />
              <mxPoint x="570" y="1280" />
              <mxPoint x="570" y="940" />
              <mxPoint x="320" y="940" />
            </Array>
          </mxGeometry>
        </mxCell>
        <mxCell id="ga5Y2FUn5J8a-sesneGH-54" value="StudentAssitantId" style="whiteSpace=wrap;html=1;align=center;fontSize=18;" vertex="1" parent="1">
          <mxGeometry x="290" y="1230" width="170" height="40" as="geometry" />
        </mxCell>
        <mxCell id="ga5Y2FUn5J8a-sesneGH-72" style="edgeStyle=orthogonalEdgeStyle;rounded=0;orthogonalLoop=1;jettySize=auto;html=1;fontSize=18;entryX=0;entryY=1;entryDx=0;entryDy=0;entryPerimeter=0;" edge="1" parent="1" source="ga5Y2FUn5J8a-sesneGH-55" target="ga5Y2FUn5J8a-sesneGH-1">
          <mxGeometry relative="1" as="geometry">
            <mxPoint x="50" y="140" as="targetPoint" />
            <Array as="points">
              <mxPoint x="240" y="1280" />
              <mxPoint x="90" y="1280" />
              <mxPoint x="90" y="160" />
              <mxPoint x="190" y="160" />
            </Array>
          </mxGeometry>
        </mxCell>
        <mxCell id="ga5Y2FUn5J8a-sesneGH-55" value="&lt;b&gt;&lt;u&gt;SSN&lt;/u&gt;&lt;/b&gt;" style="whiteSpace=wrap;html=1;align=center;fontSize=18;" vertex="1" parent="1">
          <mxGeometry x="190" y="1230" width="100" height="40" as="geometry" />
        </mxCell>
        <mxCell id="ga5Y2FUn5J8a-sesneGH-56" value="&lt;b&gt;&lt;font style=&quot;font-size: 18px;&quot;&gt;Teaching Assistant&lt;/font&gt;&lt;/b&gt;" style="text;html=1;align=center;verticalAlign=middle;resizable=0;points=[];autosize=1;strokeColor=none;fillColor=none;" vertex="1" parent="1">
          <mxGeometry x="190" y="1310" width="190" height="40" as="geometry" />
        </mxCell>
        <mxCell id="ga5Y2FUn5J8a-sesneGH-57" value="Course" style="whiteSpace=wrap;html=1;align=center;fontSize=18;" vertex="1" parent="1">
          <mxGeometry x="460" y="1350" width="100" height="40" as="geometry" />
        </mxCell>
        <mxCell id="ga5Y2FUn5J8a-sesneGH-77" style="edgeStyle=orthogonalEdgeStyle;rounded=0;orthogonalLoop=1;jettySize=auto;html=1;fontSize=18;" edge="1" parent="1" source="ga5Y2FUn5J8a-sesneGH-58" target="ga5Y2FUn5J8a-sesneGH-35">
          <mxGeometry relative="1" as="geometry">
            <mxPoint x="340" y="930" as="targetPoint" />
            <Array as="points">
              <mxPoint x="375" y="1410" />
              <mxPoint x="590" y="1410" />
              <mxPoint x="590" y="930" />
              <mxPoint x="370" y="930" />
            </Array>
          </mxGeometry>
        </mxCell>
        <mxCell id="ga5Y2FUn5J8a-sesneGH-58" value="StudentAssitantId" style="whiteSpace=wrap;html=1;align=center;fontSize=18;" vertex="1" parent="1">
          <mxGeometry x="290" y="1350" width="170" height="40" as="geometry" />
        </mxCell>
        <mxCell id="ga5Y2FUn5J8a-sesneGH-73" style="edgeStyle=orthogonalEdgeStyle;rounded=0;orthogonalLoop=1;jettySize=auto;html=1;fontSize=18;entryX=0;entryY=0;entryDx=0;entryDy=0;" edge="1" parent="1" source="ga5Y2FUn5J8a-sesneGH-59" target="ga5Y2FUn5J8a-sesneGH-16">
          <mxGeometry relative="1" as="geometry">
            <mxPoint x="50" y="140" as="targetPoint" />
            <Array as="points">
              <mxPoint x="240" y="1400" />
              <mxPoint x="70" y="1400" />
              <mxPoint x="70" y="140" />
              <mxPoint x="190" y="140" />
            </Array>
          </mxGeometry>
        </mxCell>
        <mxCell id="ga5Y2FUn5J8a-sesneGH-59" value="&lt;b&gt;&lt;u&gt;SSN&lt;/u&gt;&lt;/b&gt;" style="whiteSpace=wrap;html=1;align=center;fontSize=18;" vertex="1" parent="1">
          <mxGeometry x="190" y="1350" width="100" height="40" as="geometry" />
        </mxCell>
      </root>
    </mxGraphModel>
  </diagram>
</mxfile>
